<svg width="99" height="22" viewBox="0 0 99 22" fill="none" xmlns="http://www.w3.org/2000/svg">
<path d="M40.7188 14.5078C40.3333 15.0599 39.7943 15.474 39.1016 15.75C38.4141 16.0208 37.612 16.1562 36.6953 16.1562C35.7682 16.1562 34.9453 15.9401 34.2266 15.5078C33.5078 15.0703 32.9505 14.4505 32.5547 13.6484C32.1641 12.8464 31.9635 11.9167 31.9531 10.8594V9.86719C31.9531 8.15365 32.3516 6.82552 33.1484 5.88281C33.9505 4.9401 35.0755 4.46875 36.5234 4.46875C37.7109 4.46875 38.6667 4.77344 39.3906 5.38281C40.1146 5.98698 40.5573 6.84635 40.7188 7.96094H39.2188C38.9375 6.45573 38.0417 5.70312 36.5312 5.70312C35.526 5.70312 34.763 6.05729 34.2422 6.76562C33.7266 7.46875 33.4661 8.48958 33.4609 9.82812V10.7578C33.4609 12.0339 33.7526 13.0495 34.3359 13.8047C34.9193 14.5547 35.7083 14.9297 36.7031 14.9297C37.2656 14.9297 37.7578 14.8672 38.1797 14.7422C38.6016 14.6172 38.9505 14.4062 39.2266 14.1094V11.5547H36.5938V10.3359H40.7188V14.5078ZM44.5703 16H43.125V7.54688H44.5703V16ZM43.0078 5.30469C43.0078 5.07031 43.0781 4.8724 43.2188 4.71094C43.3646 4.54948 43.5781 4.46875 43.8594 4.46875C44.1406 4.46875 44.3542 4.54948 44.5 4.71094C44.6458 4.8724 44.7188 5.07031 44.7188 5.30469C44.7188 5.53906 44.6458 5.73438 44.5 5.89062C44.3542 6.04688 44.1406 6.125 43.8594 6.125C43.5781 6.125 43.3646 6.04688 43.2188 5.89062C43.0781 5.73438 43.0078 5.53906 43.0078 5.30469ZM46.5078 11.6953C46.5078 10.8672 46.6667 10.125 46.9844 9.46875C47.3073 8.80729 47.7604 8.29688 48.3438 7.9375C48.9323 7.57292 49.599 7.39062 50.3438 7.39062C51.4219 7.39062 52.3151 7.75 53.0234 8.46875C53.3932 8.42708 53.6615 8.27604 53.8281 8.01562C53.9948 7.75521 54.0781 7.29167 54.0781 6.625H55.25C55.25 8.14062 54.7109 9.03125 53.6328 9.29688C54.013 10.0156 54.2031 10.8151 54.2031 11.6953V11.8672C54.2031 12.6901 54.0417 13.4323 53.7188 14.0938C53.3958 14.7552 52.9427 15.2656 52.3594 15.625C51.776 15.9792 51.1094 16.1562 50.3594 16.1562C49.2031 16.1562 48.2708 15.7578 47.5625 14.9609C46.8594 14.1589 46.5078 13.1042 46.5078 11.7969V11.6953ZM47.9531 11.8672C47.9531 12.8047 48.1693 13.5573 48.6016 14.125C49.0391 14.6927 49.625 14.9766 50.3594 14.9766C51.0833 14.9766 51.6615 14.6927 52.0938 14.125C52.5312 13.5521 52.75 12.7839 52.75 11.8203V11.6953C52.75 10.7526 52.5286 9.9974 52.0859 9.42969C51.6484 8.86198 51.0677 8.57812 50.3438 8.57812C49.625 8.57812 49.0469 8.86198 48.6094 9.42969C48.1719 9.9974 47.9531 10.8099 47.9531 11.8672ZM51.0547 4H52.8047L50.7109 6.29688H49.5469L51.0547 4ZM57.6016 16H56.1562V7.54688H57.6016V16ZM56.0391 5.30469C56.0391 5.07031 56.1094 4.8724 56.25 4.71094C56.3958 4.54948 56.6094 4.46875 56.8906 4.46875C57.1719 4.46875 57.3854 4.54948 57.5312 4.71094C57.6771 4.8724 57.75 5.07031 57.75 5.30469C57.75 5.53906 57.6771 5.73438 57.5312 5.89062C57.3854 6.04688 57.1719 6.125 56.8906 6.125C56.6094 6.125 56.3958 6.04688 56.25 5.89062C56.1094 5.73438 56.0391 5.53906 56.0391 5.30469ZM65.8516 5.5V7.54688H67.4297V8.66406H65.8516V13.9062C65.8516 14.2448 65.9219 14.5 66.0625 14.6719C66.2031 14.8385 66.4427 14.9219 66.7812 14.9219C66.9479 14.9219 67.1771 14.8906 67.4688 14.8281V16C67.0885 16.1042 66.7188 16.1562 66.3594 16.1562C65.7135 16.1562 65.2266 15.9609 64.8984 15.5703C64.5703 15.1797 64.4062 14.625 64.4062 13.9062V8.66406H62.8672V7.54688H64.4062V5.5H65.8516ZM70.5703 8.57031C71.2109 7.78385 72.0443 7.39062 73.0703 7.39062C74.8568 7.39062 75.7578 8.39844 75.7734 10.4141V16H74.3281V10.4062C74.3229 9.79688 74.1823 9.34635 73.9062 9.05469C73.6354 8.76302 73.2109 8.61719 72.6328 8.61719C72.1641 8.61719 71.7526 8.74219 71.3984 8.99219C71.0443 9.24219 70.7682 9.57031 70.5703 9.97656V16H69.125V4H70.5703V8.57031ZM79.5078 16H78.0625V7.54688H79.5078V16ZM77.9453 5.30469C77.9453 5.07031 78.0156 4.8724 78.1562 4.71094C78.3021 4.54948 78.5156 4.46875 78.7969 4.46875C79.0781 4.46875 79.2917 4.54948 79.4375 4.71094C79.5833 4.8724 79.6562 5.07031 79.6562 5.30469C79.6562 5.53906 79.5833 5.73438 79.4375 5.89062C79.2917 6.04688 79.0781 6.125 78.7969 6.125C78.5156 6.125 78.3021 6.04688 78.1562 5.89062C78.0156 5.73438 77.9453 5.53906 77.9453 5.30469ZM85.3359 16.1562C84.1901 16.1562 83.2578 15.7812 82.5391 15.0312C81.8203 14.276 81.4609 13.2682 81.4609 12.0078V11.7422C81.4609 10.9036 81.6198 10.1562 81.9375 9.5C82.2604 8.83854 82.7083 8.32292 83.2812 7.95312C83.8594 7.57812 84.4844 7.39062 85.1562 7.39062C86.2552 7.39062 87.1094 7.7526 87.7188 8.47656C88.3281 9.20052 88.6328 10.237 88.6328 11.5859V12.1875H82.9062C82.9271 13.0208 83.1693 13.6953 83.6328 14.2109C84.1016 14.7214 84.6953 14.9766 85.4141 14.9766C85.9245 14.9766 86.3568 14.8724 86.7109 14.6641C87.0651 14.4557 87.375 14.1797 87.6406 13.8359L88.5234 14.5234C87.8151 15.612 86.7526 16.1562 85.3359 16.1562ZM85.1562 8.57812C84.5729 8.57812 84.0833 8.79167 83.6875 9.21875C83.2917 9.64062 83.0469 10.2344 82.9531 11H87.1875V10.8906C87.1458 10.1562 86.9479 9.58854 86.5938 9.1875C86.2396 8.78125 85.7604 8.57812 85.1562 8.57812ZM87.5156 6.14062V6.21875H86.3203L85.1484 4.89062L83.9844 6.21875H82.7891V6.125L84.7109 4H85.5859L87.5156 6.14062ZM84.2656 17.9141C84.2656 17.6797 84.3359 17.4818 84.4766 17.3203C84.6224 17.1589 84.8359 17.0781 85.1172 17.0781C85.3984 17.0781 85.612 17.1589 85.7578 17.3203C85.9036 17.4818 85.9766 17.6797 85.9766 17.9141C85.9766 18.1484 85.9036 18.3438 85.7578 18.5C85.612 18.6562 85.3984 18.7344 85.1172 18.7344C84.8359 18.7344 84.6224 18.6562 84.4766 18.5C84.3359 18.3438 84.2656 18.1484 84.2656 17.9141ZM95.5312 15.1641C94.9688 15.8255 94.1432 16.1562 93.0547 16.1562C92.1536 16.1562 91.4661 15.8958 90.9922 15.375C90.5234 14.849 90.2865 14.0729 90.2812 13.0469V7.54688H91.7266V13.0078C91.7266 14.2891 92.2474 14.9297 93.2891 14.9297C94.3932 14.9297 95.1276 14.5182 95.4922 13.6953V7.54688H96.9375V16H95.5625L95.5312 15.1641Z" fill="#223D4F"/>
<path d="M10.9999 1.83331C5.94542 1.83331 1.83325 5.94548 1.83325 11C1.83325 16.0545 5.94542 20.1666 10.9999 20.1666C16.0544 20.1666 20.1666 16.0545 20.1666 11C20.1666 5.94548 16.0544 1.83331 10.9999 1.83331ZM11.9166 15.5833H10.0833V10.0833H11.9166V15.5833ZM11.9166 8.24998H10.0833V6.41665H11.9166V8.24998Z" fill="#223D4F"/>
</svg>
