<svg width="192" height="22" viewBox="0 0 192 22" fill="none" xmlns="http://www.w3.org/2000/svg">
<path d="M39.6875 12.3906C39.5469 13.5938 39.1016 14.5234 38.3516 15.1797C37.6068 15.8307 36.6146 16.1562 35.375 16.1562C34.0312 16.1562 32.9531 15.6745 32.1406 14.7109C31.3333 13.7474 30.9297 12.4583 30.9297 10.8438V9.75C30.9297 8.69271 31.1172 7.76302 31.4922 6.96094C31.8724 6.15885 32.4089 5.54427 33.1016 5.11719C33.7943 4.6849 34.5964 4.46875 35.5078 4.46875C36.7161 4.46875 37.6849 4.80729 38.4141 5.48438C39.1432 6.15625 39.5677 7.08854 39.6875 8.28125H38.1797C38.0495 7.375 37.7656 6.71875 37.3281 6.3125C36.8958 5.90625 36.2891 5.70312 35.5078 5.70312C34.5495 5.70312 33.7969 6.05729 33.25 6.76562C32.7083 7.47396 32.4375 8.48177 32.4375 9.78906V10.8906C32.4375 12.125 32.6953 13.1068 33.2109 13.8359C33.7266 14.5651 34.4479 14.9297 35.375 14.9297C36.2083 14.9297 36.8464 14.7422 37.2891 14.3672C37.737 13.987 38.0339 13.3281 38.1797 12.3906H39.6875ZM42.9609 8.57031C43.6016 7.78385 44.4349 7.39062 45.4609 7.39062C47.2474 7.39062 48.1484 8.39844 48.1641 10.4141V16H46.7188V10.4062C46.7135 9.79688 46.5729 9.34635 46.2969 9.05469C46.026 8.76302 45.6016 8.61719 45.0234 8.61719C44.5547 8.61719 44.1432 8.74219 43.7891 8.99219C43.4349 9.24219 43.1589 9.57031 42.9609 9.97656V16H41.5156V4H42.9609V8.57031ZM51.8984 16H50.4453V7.54688H51.8984V16ZM51.9141 4.00781H53.6641L51.5703 6.30469H50.4062L51.9141 4.00781ZM55.6484 7.54688L55.6953 8.60938C56.3411 7.79688 57.1849 7.39062 58.2266 7.39062C60.013 7.39062 60.9141 8.39844 60.9297 10.4141V16H59.4844V10.4062C59.4792 9.79688 59.3385 9.34635 59.0625 9.05469C58.7917 8.76302 58.3672 8.61719 57.7891 8.61719C57.3203 8.61719 56.9089 8.74219 56.5547 8.99219C56.2005 9.24219 55.9245 9.57031 55.7266 9.97656V16H54.2812V7.54688H55.6484ZM64.5547 8.57031C65.1953 7.78385 66.0286 7.39062 67.0547 7.39062C68.8411 7.39062 69.7422 8.39844 69.7578 10.4141V16H68.3125V10.4062C68.3073 9.79688 68.1667 9.34635 67.8906 9.05469C67.6198 8.76302 67.1953 8.61719 66.6172 8.61719C66.1484 8.61719 65.737 8.74219 65.3828 8.99219C65.0286 9.24219 64.7526 9.57031 64.5547 9.97656V16H63.1094V4H64.5547V8.57031ZM80.8125 13.7578C80.8125 13.3672 80.6641 13.0651 80.3672 12.8516C80.0755 12.6328 79.5625 12.4453 78.8281 12.2891C78.099 12.1328 77.5182 11.9453 77.0859 11.7266C76.6589 11.5078 76.3411 11.2474 76.1328 10.9453C75.9297 10.6432 75.8281 10.2839 75.8281 9.86719C75.8281 9.17448 76.1198 8.58854 76.7031 8.10938C77.2917 7.63021 78.0417 7.39062 78.9531 7.39062C79.9115 7.39062 80.6875 7.63802 81.2812 8.13281C81.8802 8.6276 82.1797 9.26042 82.1797 10.0312H80.7266C80.7266 9.63542 80.5573 9.29427 80.2188 9.00781C79.8854 8.72135 79.4635 8.57812 78.9531 8.57812C78.4271 8.57812 78.0156 8.69271 77.7188 8.92188C77.4219 9.15104 77.2734 9.45052 77.2734 9.82031C77.2734 10.1693 77.4115 10.4323 77.6875 10.6094C77.9635 10.7865 78.4609 10.9557 79.1797 11.1172C79.9036 11.2786 80.4896 11.4714 80.9375 11.6953C81.3854 11.9193 81.7161 12.1901 81.9297 12.5078C82.1484 12.8203 82.2578 13.2031 82.2578 13.6562C82.2578 14.4115 81.9557 15.0182 81.3516 15.4766C80.7474 15.9297 79.9635 16.1562 79 16.1562C78.3229 16.1562 77.724 16.0365 77.2031 15.7969C76.6823 15.5573 76.2734 15.224 75.9766 14.7969C75.6849 14.3646 75.5391 13.8984 75.5391 13.3984H76.9844C77.0104 13.8828 77.2031 14.2682 77.5625 14.5547C77.9271 14.8359 78.4062 14.9766 79 14.9766C79.5469 14.9766 79.9844 14.8672 80.3125 14.6484C80.6458 14.4245 80.8125 14.1276 80.8125 13.7578ZM89.3594 16C89.276 15.8333 89.2083 15.5365 89.1562 15.1094C88.4844 15.8073 87.6823 16.1562 86.75 16.1562C85.9167 16.1562 85.2318 15.9219 84.6953 15.4531C84.1641 14.9792 83.8984 14.3802 83.8984 13.6562C83.8984 12.776 84.2318 12.0938 84.8984 11.6094C85.5703 11.1198 86.513 10.875 87.7266 10.875H89.1328V10.2109C89.1328 9.70573 88.9818 9.30469 88.6797 9.00781C88.3776 8.70573 87.9323 8.55469 87.3438 8.55469C86.8281 8.55469 86.3958 8.6849 86.0469 8.94531C85.6979 9.20573 85.5234 9.52083 85.5234 9.89062H84.0703C84.0703 9.46875 84.2188 9.0625 84.5156 8.67188C84.8177 8.27604 85.224 7.96354 85.7344 7.73438C86.25 7.50521 86.8151 7.39062 87.4297 7.39062C88.4036 7.39062 89.1667 7.63542 89.7188 8.125C90.2708 8.60938 90.5573 9.27865 90.5781 10.1328V14.0234C90.5781 14.7995 90.6771 15.4167 90.875 15.875V16H89.3594ZM86.9609 14.8984C87.4141 14.8984 87.8438 14.7812 88.25 14.5469C88.6562 14.3125 88.9505 14.0078 89.1328 13.6328V11.8984H88C86.2292 11.8984 85.3438 12.4167 85.3438 13.4531C85.3438 13.9062 85.4948 14.2604 85.7969 14.5156C86.099 14.7708 86.487 14.8984 86.9609 14.8984ZM88.2969 4H90.0469L87.9531 6.29688H86.7891L88.2969 4ZM96.2344 14.9766C96.75 14.9766 97.2005 14.8203 97.5859 14.5078C97.9714 14.1953 98.1849 13.8047 98.2266 13.3359H99.5938C99.5677 13.8203 99.401 14.2812 99.0938 14.7188C98.7865 15.1562 98.375 15.5052 97.8594 15.7656C97.349 16.026 96.8073 16.1562 96.2344 16.1562C95.0833 16.1562 94.1667 15.7734 93.4844 15.0078C92.8073 14.237 92.4688 13.1849 92.4688 11.8516V11.6094C92.4688 10.7865 92.6198 10.0547 92.9219 9.41406C93.224 8.77344 93.6562 8.27604 94.2188 7.92188C94.7865 7.56771 95.4557 7.39062 96.2266 7.39062C97.1745 7.39062 97.9609 7.67448 98.5859 8.24219C99.2161 8.8099 99.5521 9.54688 99.5938 10.4531H98.2266C98.1849 9.90625 97.9766 9.45833 97.6016 9.10938C97.2318 8.75521 96.7734 8.57812 96.2266 8.57812C95.4922 8.57812 94.9219 8.84375 94.5156 9.375C94.1146 9.90104 93.9141 10.6641 93.9141 11.6641V11.9375C93.9141 12.9115 94.1146 13.6615 94.5156 14.1875C94.9167 14.7135 95.4896 14.9766 96.2344 14.9766ZM102.664 8.57031C103.305 7.78385 104.138 7.39062 105.164 7.39062C106.951 7.39062 107.852 8.39844 107.867 10.4141V16H106.422V10.4062C106.417 9.79688 106.276 9.34635 106 9.05469C105.729 8.76302 105.305 8.61719 104.727 8.61719C104.258 8.61719 103.846 8.74219 103.492 8.99219C103.138 9.24219 102.862 9.57031 102.664 9.97656V16H101.219V4H102.664V8.57031ZM116.789 14.0391L118.883 7.54688H120.359L117.328 16H116.227L113.164 7.54688H114.641L116.789 14.0391ZM125.148 16.1562C124.003 16.1562 123.07 15.7812 122.352 15.0312C121.633 14.276 121.273 13.2682 121.273 12.0078V11.7422C121.273 10.9036 121.432 10.1562 121.75 9.5C122.073 8.83854 122.521 8.32292 123.094 7.95312C123.672 7.57812 124.297 7.39062 124.969 7.39062C126.068 7.39062 126.922 7.7526 127.531 8.47656C128.141 9.20052 128.445 10.237 128.445 11.5859V12.1875H122.719C122.74 13.0208 122.982 13.6953 123.445 14.2109C123.914 14.7214 124.508 14.9766 125.227 14.9766C125.737 14.9766 126.169 14.8724 126.523 14.6641C126.878 14.4557 127.188 14.1797 127.453 13.8359L128.336 14.5234C127.628 15.612 126.565 16.1562 125.148 16.1562ZM124.969 8.57812C124.385 8.57812 123.896 8.79167 123.5 9.21875C123.104 9.64062 122.859 10.2344 122.766 11H127V10.8906C126.958 10.1562 126.76 9.58854 126.406 9.1875C126.052 8.78125 125.573 8.57812 124.969 8.57812ZM127.812 6.32812H126.273L124.945 5.09375L123.617 6.32812H122.086L124.352 4.28125H125.539L127.812 6.32812ZM122.656 4.94531H121.562L120 2.92969H121.555L122.656 4.94531ZM141.25 11.8672C141.25 13.1589 140.953 14.1979 140.359 14.9844C139.766 15.7656 138.969 16.1562 137.969 16.1562C136.901 16.1562 136.076 15.7786 135.492 15.0234L135.422 16H134.094V4H135.539V8.47656C136.122 7.7526 136.927 7.39062 137.953 7.39062C138.979 7.39062 139.784 7.77865 140.367 8.55469C140.956 9.33073 141.25 10.3932 141.25 11.7422V11.8672ZM139.805 11.7031C139.805 10.7188 139.615 9.95833 139.234 9.42188C138.854 8.88542 138.307 8.61719 137.594 8.61719C136.641 8.61719 135.956 9.0599 135.539 9.94531V13.6016C135.982 14.487 136.672 14.9297 137.609 14.9297C138.302 14.9297 138.841 14.6615 139.227 14.125C139.612 13.5885 139.805 12.7812 139.805 11.7031ZM148.297 16C148.214 15.8333 148.146 15.5365 148.094 15.1094C147.422 15.8073 146.62 16.1562 145.688 16.1562C144.854 16.1562 144.169 15.9219 143.633 15.4531C143.102 14.9792 142.836 14.3802 142.836 13.6562C142.836 12.776 143.169 12.0938 143.836 11.6094C144.508 11.1198 145.451 10.875 146.664 10.875H148.07V10.2109C148.07 9.70573 147.919 9.30469 147.617 9.00781C147.315 8.70573 146.87 8.55469 146.281 8.55469C145.766 8.55469 145.333 8.6849 144.984 8.94531C144.635 9.20573 144.461 9.52083 144.461 9.89062H143.008C143.008 9.46875 143.156 9.0625 143.453 8.67188C143.755 8.27604 144.161 7.96354 144.672 7.73438C145.188 7.50521 145.753 7.39062 146.367 7.39062C147.341 7.39062 148.104 7.63542 148.656 8.125C149.208 8.60938 149.495 9.27865 149.516 10.1328V14.0234C149.516 14.7995 149.615 15.4167 149.812 15.875V16H148.297ZM145.898 14.8984C146.352 14.8984 146.781 14.7812 147.188 14.5469C147.594 14.3125 147.888 14.0078 148.07 13.6328V11.8984H146.938C145.167 11.8984 144.281 12.4167 144.281 13.4531C144.281 13.9062 144.432 14.2604 144.734 14.5156C145.036 14.7708 145.424 14.8984 145.898 14.8984ZM146.039 6.17969L146.031 4.98438C146.422 4.95833 146.708 4.90625 146.891 4.82812C147.073 4.75 147.164 4.60938 147.164 4.40625C147.164 4.20312 147.044 4.05208 146.805 3.95312C146.57 3.84896 146.258 3.79688 145.867 3.79688L145.922 2.96875C146.698 2.96875 147.286 3.10417 147.688 3.375C148.089 3.64062 148.289 3.99479 148.289 4.4375C148.289 4.75521 148.188 5.01823 147.984 5.22656C147.781 5.4349 147.479 5.56771 147.078 5.625L147.07 6.17969H146.039ZM151.398 11.6953C151.398 10.8672 151.56 10.1224 151.883 9.46094C152.211 8.79948 152.664 8.28906 153.242 7.92969C153.826 7.57031 154.49 7.39062 155.234 7.39062C156.385 7.39062 157.315 7.78906 158.023 8.58594C158.737 9.38281 159.094 10.4427 159.094 11.7656V11.8672C159.094 12.6901 158.935 13.4297 158.617 14.0859C158.305 14.737 157.854 15.2448 157.266 15.6094C156.682 15.974 156.01 16.1562 155.25 16.1562C154.104 16.1562 153.174 15.7578 152.461 14.9609C151.753 14.1641 151.398 13.1094 151.398 11.7969V11.6953ZM152.852 11.8672C152.852 12.8047 153.068 13.5573 153.5 14.125C153.938 14.6927 154.521 14.9766 155.25 14.9766C155.984 14.9766 156.568 14.6901 157 14.1172C157.432 13.5391 157.648 12.7318 157.648 11.6953C157.648 10.7682 157.427 10.0182 156.984 9.44531C156.547 8.86719 155.964 8.57812 155.234 8.57812C154.521 8.57812 153.945 8.86198 153.508 9.42969C153.07 9.9974 152.852 10.8099 152.852 11.8672ZM166.234 7.54688L166.273 8.48438C166.893 7.75521 167.729 7.39062 168.781 7.39062C169.964 7.39062 170.768 7.84375 171.195 8.75C171.477 8.34375 171.841 8.01562 172.289 7.76562C172.742 7.51562 173.276 7.39062 173.891 7.39062C175.745 7.39062 176.688 8.3724 176.719 10.3359V16H175.273V10.4219C175.273 9.81771 175.135 9.36719 174.859 9.07031C174.583 8.76823 174.12 8.61719 173.469 8.61719C172.932 8.61719 172.487 8.77865 172.133 9.10156C171.779 9.41927 171.573 9.84896 171.516 10.3906V16H170.062V10.4609C170.062 9.23177 169.461 8.61719 168.258 8.61719C167.31 8.61719 166.661 9.02083 166.312 9.82812V16H164.867V7.54688H166.234ZM184.125 16C184.042 15.8333 183.974 15.5365 183.922 15.1094C183.25 15.8073 182.448 16.1562 181.516 16.1562C180.682 16.1562 179.997 15.9219 179.461 15.4531C178.93 14.9792 178.664 14.3802 178.664 13.6562C178.664 12.776 178.997 12.0938 179.664 11.6094C180.336 11.1198 181.279 10.875 182.492 10.875H183.898V10.2109C183.898 9.70573 183.747 9.30469 183.445 9.00781C183.143 8.70573 182.698 8.55469 182.109 8.55469C181.594 8.55469 181.161 8.6849 180.812 8.94531C180.464 9.20573 180.289 9.52083 180.289 9.89062H178.836C178.836 9.46875 178.984 9.0625 179.281 8.67188C179.583 8.27604 179.99 7.96354 180.5 7.73438C181.016 7.50521 181.581 7.39062 182.195 7.39062C183.169 7.39062 183.932 7.63542 184.484 8.125C185.036 8.60938 185.323 9.27865 185.344 10.1328V14.0234C185.344 14.7995 185.443 15.4167 185.641 15.875V16H184.125ZM181.727 14.8984C182.18 14.8984 182.609 14.7812 183.016 14.5469C183.422 14.3125 183.716 14.0078 183.898 13.6328V11.8984H182.766C180.995 11.8984 180.109 12.4167 180.109 13.4531C180.109 13.9062 180.26 14.2604 180.562 14.5156C180.865 14.7708 181.253 14.8984 181.727 14.8984ZM184.719 6.14062V6.21875H183.523L182.352 4.89062L181.188 6.21875H179.992V6.125L181.914 4H182.789L184.719 6.14062ZM180.828 17.9141C180.828 17.6797 180.898 17.4818 181.039 17.3203C181.185 17.1589 181.398 17.0781 181.68 17.0781C181.961 17.0781 182.174 17.1589 182.32 17.3203C182.466 17.4818 182.539 17.6797 182.539 17.9141C182.539 18.1484 182.466 18.3438 182.32 18.5C182.174 18.6562 181.961 18.7344 181.68 18.7344C181.398 18.7344 181.185 18.6562 181.039 18.5C180.898 18.3438 180.828 18.1484 180.828 17.9141ZM189.57 5.5V7.54688H191.148V8.66406H189.57V13.9062C189.57 14.2448 189.641 14.5 189.781 14.6719C189.922 14.8385 190.161 14.9219 190.5 14.9219C190.667 14.9219 190.896 14.8906 191.188 14.8281V16C190.807 16.1042 190.438 16.1562 190.078 16.1562C189.432 16.1562 188.945 15.9609 188.617 15.5703C188.289 15.1797 188.125 14.625 188.125 13.9062V8.66406H186.586V7.54688H188.125V5.5H189.57Z" fill="#223D4F"/>
<path d="M10.5307 19.9411C10.8002 20.0851 11.1385 20.0841 11.408 19.9402C18.7523 15.9949 19.2739 8.28664 19.2675 6.09489C19.2668 5.91874 19.2147 5.74661 19.1177 5.59959C19.0206 5.45256 18.8828 5.33703 18.7211 5.26714L11.342 1.99831C11.2245 1.94654 11.0976 1.91989 10.9693 1.92004C10.8409 1.9202 10.714 1.94717 10.5967 1.99923L3.26889 5.26806C3.10957 5.33799 2.97371 5.45224 2.8775 5.59721C2.78129 5.74218 2.72878 5.91175 2.72622 6.08573C2.69506 8.26648 3.13414 15.9912 10.5307 19.9411ZM7.95122 9.43523L10.0531 11.5371L13.9884 7.60189L15.2846 8.89806L10.0531 14.1295L6.65506 10.7314L7.95122 9.43523Z" fill="#223D4F"/>
</svg>
