<svg width="223" height="46" viewBox="0 0 223 46" fill="none" xmlns="http://www.w3.org/2000/svg">
<path d="M12.456 16.38C14.832 16.38 16.476 17.112 17.388 18.576C18.3 20.016 18.756 22.02 18.756 24.588V33.804C18.756 34.428 18.552 34.956 18.144 35.388C17.736 35.796 17.22 36 16.596 36C15.972 36 15.456 35.796 15.048 35.388C14.64 34.956 14.436 34.428 14.436 33.804V24.588C14.436 23.268 14.172 22.236 13.644 21.492C13.14 20.724 12.24 20.34 10.944 20.34C9.6 20.34 8.544 20.748 7.776 21.564C7.032 22.356 6.66 23.364 6.66 24.588V33.804C6.66 34.428 6.456 34.956 6.048 35.388C5.64 35.796 5.124 36 4.5 36C3.876 36 3.36 35.796 2.952 35.388C2.544 34.956 2.34 34.428 2.34 33.804V11.556C2.34 10.932 2.544 10.416 2.952 10.008C3.36 9.576 3.876 9.36 4.5 9.36C5.124 9.36 5.64 9.576 6.048 10.008C6.456 10.416 6.66 10.932 6.66 11.556V19.512C7.308 18.648 8.124 17.916 9.108 17.316C10.116 16.692 11.232 16.38 12.456 16.38ZM39.5257 16.74C40.1498 16.74 40.6658 16.956 41.0737 17.388C41.4817 17.796 41.6857 18.312 41.6857 18.936V28.08C41.6857 30.672 40.9657 32.7 39.5257 34.164C38.1098 35.628 36.0818 36.36 33.4417 36.36C30.8017 36.36 28.7737 35.628 27.3577 34.164C25.9417 32.7 25.2337 30.672 25.2337 28.08V18.936C25.2337 18.312 25.4377 17.796 25.8457 17.388C26.2537 16.956 26.7697 16.74 27.3937 16.74C28.0177 16.74 28.5337 16.956 28.9417 17.388C29.3497 17.796 29.5537 18.312 29.5537 18.936V28.08C29.5537 29.544 29.8777 30.636 30.5257 31.356C31.1737 32.052 32.1457 32.4 33.4417 32.4C34.7617 32.4 35.7458 32.052 36.3938 31.356C37.0417 30.636 37.3657 29.544 37.3657 28.08V18.936C37.3657 18.312 37.5697 17.796 37.9778 17.388C38.3858 16.956 38.9017 16.74 39.5257 16.74Z" fill="#223D4F"/>
<path d="M58.1347 16.38C59.7907 16.38 61.2907 16.812 62.6347 17.676C63.9787 18.516 65.0347 19.692 65.8027 21.204C66.5947 22.716 66.9907 24.432 66.9907 26.352C66.9907 28.272 66.6067 30 65.8387 31.536C65.0707 33.048 64.0147 34.236 62.6707 35.1C61.3507 35.94 59.8867 36.36 58.2787 36.36C57.1267 36.36 56.0347 36.132 55.0027 35.676C53.9947 35.196 53.1547 34.62 52.4827 33.948V34.164C52.4827 34.788 52.2787 35.316 51.8707 35.748C51.4627 36.156 50.9467 36.36 50.3227 36.36C49.6987 36.36 49.1827 36.156 48.7747 35.748C48.3667 35.34 48.1627 34.812 48.1627 34.164V11.556C48.1627 10.932 48.3667 10.416 48.7747 10.008C49.1827 9.576 49.6987 9.36 50.3227 9.36C50.9467 9.36 51.4627 9.576 51.8707 10.008C52.2787 10.416 52.4827 10.932 52.4827 11.556V19.08C53.0587 18.36 53.8627 17.736 54.8947 17.208C55.9267 16.656 57.0067 16.38 58.1347 16.38ZM57.5947 32.4C59.1307 32.4 60.3907 31.824 61.3747 30.672C62.3587 29.52 62.8507 28.08 62.8507 26.352C62.8507 24.624 62.3587 23.196 61.3747 22.068C60.4147 20.916 59.1547 20.34 57.5947 20.34C56.0347 20.34 54.7627 20.916 53.7787 22.068C52.7947 23.196 52.3027 24.624 52.3027 26.352C52.3027 28.08 52.7947 29.52 53.7787 30.672C54.7627 31.824 56.0347 32.4 57.5947 32.4ZM76.4603 33.804C76.4603 34.428 76.2563 34.956 75.8483 35.388C75.4403 35.796 74.9243 36 74.3003 36C73.6763 36 73.1603 35.796 72.7523 35.388C72.3443 34.956 72.1403 34.428 72.1403 33.804V18.936C72.1403 18.312 72.3443 17.796 72.7523 17.388C73.1603 16.956 73.6763 16.74 74.3003 16.74C74.9243 16.74 75.4403 16.956 75.8483 17.388C76.2563 17.796 76.4603 18.312 76.4603 18.936V33.804ZM74.2643 14.4C73.4483 14.4 72.8723 14.268 72.5363 14.004C72.2003 13.74 72.0323 13.272 72.0323 12.6V11.916C72.0323 11.244 72.2123 10.776 72.5723 10.512C72.9323 10.248 73.5083 10.116 74.3003 10.116C75.1403 10.116 75.7283 10.248 76.0643 10.512C76.4003 10.776 76.5683 11.244 76.5683 11.916V12.6C76.5683 13.296 76.3883 13.776 76.0283 14.04C75.6923 14.28 75.1043 14.4 74.2643 14.4ZM92.9962 16.38C95.4442 16.38 97.1362 17.112 98.0722 18.576C99.0082 20.016 99.4762 22.02 99.4762 24.588V33.804C99.4762 34.428 99.2722 34.956 98.8642 35.388C98.4562 35.796 97.9402 36 97.3162 36C96.6922 36 96.1762 35.796 95.7682 35.388C95.3602 34.956 95.1562 34.428 95.1562 33.804V24.588C95.1562 23.268 94.8802 22.236 94.3282 21.492C93.7762 20.724 92.8282 20.34 91.4842 20.34C90.0922 20.34 89.0002 20.748 88.2082 21.564C87.4162 22.356 87.0202 23.364 87.0202 24.588V33.804C87.0202 34.428 86.8162 34.956 86.4082 35.388C86.0002 35.796 85.4842 36 84.8602 36C84.2362 36 83.7202 35.796 83.3122 35.388C82.9042 34.956 82.7002 34.428 82.7002 33.804V18.936C82.7002 18.312 82.9042 17.796 83.3122 17.388C83.7202 16.956 84.2362 16.74 84.8602 16.74C85.4842 16.74 86.0002 16.956 86.4082 17.388C86.8162 17.796 87.0202 18.312 87.0202 18.936V19.548C87.6682 18.684 88.5082 17.94 89.5402 17.316C90.5962 16.692 91.7482 16.38 92.9962 16.38ZM121.893 16.38C122.517 16.38 123.033 16.584 123.441 16.992C123.849 17.4 124.053 17.928 124.053 18.576V34.596C124.053 37.524 123.141 39.684 121.317 41.076C119.517 42.492 117.225 43.2 114.441 43.2C113.721 43.2 112.725 43.08 111.453 42.84C110.205 42.6 109.317 42.36 108.789 42.12C107.613 41.616 107.025 40.92 107.025 40.032C107.025 39.864 107.061 39.672 107.133 39.456C107.277 38.928 107.517 38.52 107.853 38.232C108.213 37.968 108.597 37.836 109.005 37.836C109.245 37.836 109.473 37.872 109.689 37.944C109.785 37.968 110.373 38.184 111.453 38.592C112.557 39.024 113.553 39.24 114.441 39.24C116.217 39.24 117.537 38.88 118.401 38.16C119.289 37.464 119.733 36.468 119.733 35.172V33.444C119.205 34.188 118.401 34.86 117.321 35.46C116.265 36.06 115.125 36.36 113.901 36.36C112.221 36.36 110.685 35.94 109.293 35.1C107.925 34.236 106.845 33.048 106.053 31.536C105.261 30.024 104.865 28.308 104.865 26.388C104.865 24.468 105.249 22.752 106.017 21.24C106.809 19.704 107.877 18.516 109.221 17.676C110.589 16.812 112.101 16.38 113.757 16.38C114.981 16.38 116.121 16.632 117.177 17.136C118.233 17.64 119.085 18.252 119.733 18.972V18.576C119.733 17.952 119.937 17.436 120.345 17.028C120.753 16.596 121.269 16.38 121.893 16.38ZM114.441 32.4C116.049 32.4 117.357 31.836 118.365 30.708C119.397 29.556 119.913 28.116 119.913 26.388C119.913 24.66 119.397 23.22 118.365 22.068C117.357 20.916 116.049 20.34 114.441 20.34C112.833 20.34 111.525 20.916 110.517 22.068C109.509 23.22 109.005 24.66 109.005 26.388C109.005 28.116 109.509 29.556 110.517 30.708C111.525 31.836 112.833 32.4 114.441 32.4Z" fill="#0B6ECA"/>
</svg>
