<svg width="31" height="31" viewBox="0 0 31 31" fill="none" xmlns="http://www.w3.org/2000/svg">
<g filter="url(#filter0_d_365_194)">
<rect x="2" y="1" width="27" height="27" rx="5" fill="#32AE4D"/>
<path d="M17.8554 6.0625H11.2461C10.8079 6.0625 10.3876 6.23658 10.0777 6.54646C9.76783 6.85633 9.59375 7.27661 9.59375 7.71484V20.9335C9.59375 21.3718 9.76783 21.792 10.0777 22.1019C10.3876 22.4118 10.8079 22.5859 11.2461 22.5859H21.1601C21.5983 22.5859 22.0186 22.4118 22.3285 22.1019C22.6384 21.792 22.8124 21.3718 22.8124 20.9335V11.0195L17.8554 6.0625Z" stroke="white" stroke-width="1.46874" stroke-linecap="round" stroke-linejoin="round"/>
<path d="M17.8553 6.0625V11.0195H22.8124" stroke="white" stroke-width="1.46874" stroke-linecap="round" stroke-linejoin="round"/>
<path d="M16.2031 19.2812V14.3242" stroke="white" stroke-width="1.46874" stroke-linecap="round" stroke-linejoin="round"/>
<path d="M13.7245 16.8027H18.6816" stroke="white" stroke-width="1.46874" stroke-linecap="round" stroke-linejoin="round"/>
</g>
<defs>
<filter id="filter0_d_365_194" x="0" y="0" width="31" height="31" filterUnits="userSpaceOnUse" color-interpolation-filters="sRGB">
<feFlood flood-opacity="0" result="BackgroundImageFix"/>
<feColorMatrix in="SourceAlpha" type="matrix" values="0 0 0 0 0 0 0 0 0 0 0 0 0 0 0 0 0 0 127 0" result="hardAlpha"/>
<feOffset dy="1"/>
<feGaussianBlur stdDeviation="1"/>
<feComposite in2="hardAlpha" operator="out"/>
<feColorMatrix type="matrix" values="0 0 0 0 0.768627 0 0 0 0 0.768627 0 0 0 0 0.768627 0 0 0 1 0"/>
<feBlend mode="normal" in2="BackgroundImageFix" result="effect1_dropShadow_365_194"/>
<feBlend mode="normal" in="SourceGraphic" in2="effect1_dropShadow_365_194" result="shape"/>
</filter>
</defs>
</svg>
