<svg width="252" height="46" viewBox="0 0 252 46" fill="none" xmlns="http://www.w3.org/2000/svg">
<rect y="3" width="8" height="29" rx="4" fill="#0B6ECA"/>
<rect x="10" y="13" width="8" height="29" rx="4" fill="#0B6ECA"/>
<path d="M41.456 16.38C43.832 16.38 45.476 17.112 46.388 18.576C47.3 20.016 47.756 22.02 47.756 24.588V33.804C47.756 34.428 47.552 34.956 47.144 35.388C46.736 35.796 46.22 36 45.596 36C44.972 36 44.456 35.796 44.048 35.388C43.64 34.956 43.436 34.428 43.436 33.804V24.588C43.436 23.268 43.172 22.236 42.644 21.492C42.14 20.724 41.24 20.34 39.944 20.34C38.6 20.34 37.544 20.748 36.776 21.564C36.032 22.356 35.66 23.364 35.66 24.588V33.804C35.66 34.428 35.456 34.956 35.048 35.388C34.64 35.796 34.124 36 33.5 36C32.876 36 32.36 35.796 31.952 35.388C31.544 34.956 31.34 34.428 31.34 33.804V11.556C31.34 10.932 31.544 10.416 31.952 10.008C32.36 9.576 32.876 9.36 33.5 9.36C34.124 9.36 34.64 9.576 35.048 10.008C35.456 10.416 35.66 10.932 35.66 11.556V19.512C36.308 18.648 37.124 17.916 38.108 17.316C39.116 16.692 40.232 16.38 41.456 16.38ZM68.5257 16.74C69.1498 16.74 69.6658 16.956 70.0737 17.388C70.4817 17.796 70.6857 18.312 70.6857 18.936V28.08C70.6857 30.672 69.9657 32.7 68.5257 34.164C67.1098 35.628 65.0818 36.36 62.4417 36.36C59.8017 36.36 57.7737 35.628 56.3577 34.164C54.9417 32.7 54.2337 30.672 54.2337 28.08V18.936C54.2337 18.312 54.4377 17.796 54.8457 17.388C55.2537 16.956 55.7697 16.74 56.3937 16.74C57.0177 16.74 57.5337 16.956 57.9417 17.388C58.3497 17.796 58.5537 18.312 58.5537 18.936V28.08C58.5537 29.544 58.8777 30.636 59.5257 31.356C60.1737 32.052 61.1457 32.4 62.4417 32.4C63.7617 32.4 64.7458 32.052 65.3938 31.356C66.0417 30.636 66.3657 29.544 66.3657 28.08V18.936C66.3657 18.312 66.5697 17.796 66.9778 17.388C67.3858 16.956 67.9017 16.74 68.5257 16.74Z" fill="#223D4F"/>
<path d="M87.1347 16.38C88.7907 16.38 90.2907 16.812 91.6347 17.676C92.9787 18.516 94.0347 19.692 94.8027 21.204C95.5947 22.716 95.9907 24.432 95.9907 26.352C95.9907 28.272 95.6067 30 94.8387 31.536C94.0707 33.048 93.0147 34.236 91.6707 35.1C90.3507 35.94 88.8867 36.36 87.2787 36.36C86.1267 36.36 85.0347 36.132 84.0027 35.676C82.9947 35.196 82.1547 34.62 81.4827 33.948V34.164C81.4827 34.788 81.2787 35.316 80.8707 35.748C80.4627 36.156 79.9467 36.36 79.3227 36.36C78.6987 36.36 78.1827 36.156 77.7747 35.748C77.3667 35.34 77.1627 34.812 77.1627 34.164V11.556C77.1627 10.932 77.3667 10.416 77.7747 10.008C78.1827 9.576 78.6987 9.36 79.3227 9.36C79.9467 9.36 80.4627 9.576 80.8707 10.008C81.2787 10.416 81.4827 10.932 81.4827 11.556V19.08C82.0587 18.36 82.8627 17.736 83.8947 17.208C84.9267 16.656 86.0067 16.38 87.1347 16.38ZM86.5947 32.4C88.1307 32.4 89.3907 31.824 90.3747 30.672C91.3587 29.52 91.8507 28.08 91.8507 26.352C91.8507 24.624 91.3587 23.196 90.3747 22.068C89.4147 20.916 88.1547 20.34 86.5947 20.34C85.0347 20.34 83.7627 20.916 82.7787 22.068C81.7947 23.196 81.3027 24.624 81.3027 26.352C81.3027 28.08 81.7947 29.52 82.7787 30.672C83.7627 31.824 85.0347 32.4 86.5947 32.4ZM105.46 33.804C105.46 34.428 105.256 34.956 104.848 35.388C104.44 35.796 103.924 36 103.3 36C102.676 36 102.16 35.796 101.752 35.388C101.344 34.956 101.14 34.428 101.14 33.804V18.936C101.14 18.312 101.344 17.796 101.752 17.388C102.16 16.956 102.676 16.74 103.3 16.74C103.924 16.74 104.44 16.956 104.848 17.388C105.256 17.796 105.46 18.312 105.46 18.936V33.804ZM103.264 14.4C102.448 14.4 101.872 14.268 101.536 14.004C101.2 13.74 101.032 13.272 101.032 12.6V11.916C101.032 11.244 101.212 10.776 101.572 10.512C101.932 10.248 102.508 10.116 103.3 10.116C104.14 10.116 104.728 10.248 105.064 10.512C105.4 10.776 105.568 11.244 105.568 11.916V12.6C105.568 13.296 105.388 13.776 105.028 14.04C104.692 14.28 104.104 14.4 103.264 14.4ZM121.996 16.38C124.444 16.38 126.136 17.112 127.072 18.576C128.008 20.016 128.476 22.02 128.476 24.588V33.804C128.476 34.428 128.272 34.956 127.864 35.388C127.456 35.796 126.94 36 126.316 36C125.692 36 125.176 35.796 124.768 35.388C124.36 34.956 124.156 34.428 124.156 33.804V24.588C124.156 23.268 123.88 22.236 123.328 21.492C122.776 20.724 121.828 20.34 120.484 20.34C119.092 20.34 118 20.748 117.208 21.564C116.416 22.356 116.02 23.364 116.02 24.588V33.804C116.02 34.428 115.816 34.956 115.408 35.388C115 35.796 114.484 36 113.86 36C113.236 36 112.72 35.796 112.312 35.388C111.904 34.956 111.7 34.428 111.7 33.804V18.936C111.7 18.312 111.904 17.796 112.312 17.388C112.72 16.956 113.236 16.74 113.86 16.74C114.484 16.74 115 16.956 115.408 17.388C115.816 17.796 116.02 18.312 116.02 18.936V19.548C116.668 18.684 117.508 17.94 118.54 17.316C119.596 16.692 120.748 16.38 121.996 16.38ZM150.893 16.38C151.517 16.38 152.033 16.584 152.441 16.992C152.849 17.4 153.053 17.928 153.053 18.576V34.596C153.053 37.524 152.141 39.684 150.317 41.076C148.517 42.492 146.225 43.2 143.441 43.2C142.721 43.2 141.725 43.08 140.453 42.84C139.205 42.6 138.317 42.36 137.789 42.12C136.613 41.616 136.025 40.92 136.025 40.032C136.025 39.864 136.061 39.672 136.133 39.456C136.277 38.928 136.517 38.52 136.853 38.232C137.213 37.968 137.597 37.836 138.005 37.836C138.245 37.836 138.473 37.872 138.689 37.944C138.785 37.968 139.373 38.184 140.453 38.592C141.557 39.024 142.553 39.24 143.441 39.24C145.217 39.24 146.537 38.88 147.401 38.16C148.289 37.464 148.733 36.468 148.733 35.172V33.444C148.205 34.188 147.401 34.86 146.321 35.46C145.265 36.06 144.125 36.36 142.901 36.36C141.221 36.36 139.685 35.94 138.293 35.1C136.925 34.236 135.845 33.048 135.053 31.536C134.261 30.024 133.865 28.308 133.865 26.388C133.865 24.468 134.249 22.752 135.017 21.24C135.809 19.704 136.877 18.516 138.221 17.676C139.589 16.812 141.101 16.38 142.757 16.38C143.981 16.38 145.121 16.632 146.177 17.136C147.233 17.64 148.085 18.252 148.733 18.972V18.576C148.733 17.952 148.937 17.436 149.345 17.028C149.753 16.596 150.269 16.38 150.893 16.38ZM143.441 32.4C145.049 32.4 146.357 31.836 147.365 30.708C148.397 29.556 148.913 28.116 148.913 26.388C148.913 24.66 148.397 23.22 147.365 22.068C146.357 20.916 145.049 20.34 143.441 20.34C141.833 20.34 140.525 20.916 139.517 22.068C138.509 23.22 138.005 24.66 138.005 26.388C138.005 28.116 138.509 29.556 139.517 30.708C140.525 31.836 141.833 32.4 143.441 32.4Z" fill="#0B6ECA"/>
</svg>
