<svg width="25" height="25" viewBox="0 0 25 25" fill="none" xmlns="http://www.w3.org/2000/svg">
<path d="M17.2958 11.5084C17.9302 10.4272 18.2042 9.17224 18.0781 7.92505C17.8916 6.06672 16.8541 4.42401 15.1583 3.30005L14.0073 5.03547C15.1729 5.80838 15.8823 6.90942 16.0052 8.13338C16.0619 8.70223 15.991 9.27657 15.7979 9.81461C15.6047 10.3527 15.2941 10.8409 14.8885 11.2438L13.6469 12.4855L15.3323 12.9803C19.7406 14.2719 19.7916 18.7053 19.7916 18.75H21.875C21.875 16.8865 20.8791 13.2448 17.2958 11.5084Z" fill="white"/>
<path d="M9.89581 12.5C12.1937 12.5 14.0625 10.6312 14.0625 8.33329C14.0625 6.03538 12.1937 4.16663 9.89581 4.16663C7.5979 4.16663 5.72915 6.03538 5.72915 8.33329C5.72915 10.6312 7.5979 12.5 9.89581 12.5ZM9.89581 6.24996C11.0448 6.24996 11.9791 7.18433 11.9791 8.33329C11.9791 9.48225 11.0448 10.4166 9.89581 10.4166C8.74685 10.4166 7.81248 9.48225 7.81248 8.33329C7.81248 7.18433 8.74685 6.24996 9.89581 6.24996ZM11.4583 13.5416H8.33331C4.88644 13.5416 2.08331 16.3447 2.08331 19.7916V20.8333H4.16665V19.7916C4.16665 17.4937 6.0354 15.625 8.33331 15.625H11.4583C13.7562 15.625 15.625 17.4937 15.625 19.7916V20.8333H17.7083V19.7916C17.7083 16.3447 14.9052 13.5416 11.4583 13.5416Z" fill="white"/>
</svg>
