<svg width="28" height="27" viewBox="0 0 28 27" fill="none" xmlns="http://www.w3.org/2000/svg">
<rect x="0.5" y="0.5" width="27" height="26" rx="9.5" stroke="white"/>
<path d="M20 25.5V24C20 23.2044 19.6839 22.4413 19.1213 21.8787C18.5587 21.3161 17.7956 21 17 21H11C10.2044 21 9.44129 21.3161 8.87868 21.8787C8.31607 22.4413 8 23.2044 8 24V25.5" stroke="white" stroke-linecap="round" stroke-linejoin="round"/>
<path d="M14 18C15.6569 18 17 16.6569 17 15C17 13.3431 15.6569 12 14 12C12.3431 12 11 13.3431 11 15C11 16.6569 12.3431 18 14 18Z" stroke="white" stroke-linecap="round" stroke-linejoin="round"/>
</svg>
