<svg width="31" height="31" viewBox="0 0 31 31" fill="none" xmlns="http://www.w3.org/2000/svg">
<g filter="url(#filter0_d_513_120)">
<rect x="2.1" y="1.1" width="26.8" height="26.8" rx="4.9" stroke="black" stroke-opacity="0.53" stroke-width="0.2" shape-rendering="crispEdges"/>
</g>
<path d="M24 19.4444C24 19.857 23.8314 20.2527 23.5314 20.5444C23.2313 20.8361 22.8243 21 22.4 21H9.6C9.17565 21 8.76869 20.8361 8.46863 20.5444C8.16857 20.2527 8 19.857 8 19.4444V8.55556C8 8.143 8.16857 7.74733 8.46863 7.45561C8.76869 7.16389 9.17565 7 9.6 7H13.6L15.2 9.33333H22.4C22.8243 9.33333 23.2313 9.49722 23.5314 9.78894C23.8314 10.0807 24 10.4763 24 10.8889V19.4444Z" stroke="#66C9FF" stroke-width="0.75" stroke-linecap="round" stroke-linejoin="round"/>
<defs>
<filter id="filter0_d_513_120" x="0" y="0" width="31" height="31" filterUnits="userSpaceOnUse" color-interpolation-filters="sRGB">
<feFlood flood-opacity="0" result="BackgroundImageFix"/>
<feColorMatrix in="SourceAlpha" type="matrix" values="0 0 0 0 0 0 0 0 0 0 0 0 0 0 0 0 0 0 127 0" result="hardAlpha"/>
<feOffset dy="1"/>
<feGaussianBlur stdDeviation="1"/>
<feComposite in2="hardAlpha" operator="out"/>
<feColorMatrix type="matrix" values="0 0 0 0 0.768627 0 0 0 0 0.768627 0 0 0 0 0.768627 0 0 0 1 0"/>
<feBlend mode="normal" in2="BackgroundImageFix" result="effect1_dropShadow_513_120"/>
<feBlend mode="normal" in="SourceGraphic" in2="effect1_dropShadow_513_120" result="shape"/>
</filter>
</defs>
</svg>
