<svg width="37" height="37" viewBox="0 0 37 37" fill="none" xmlns="http://www.w3.org/2000/svg">
<g filter="url(#filter0_d_265_511)">
<g clip-path="url(#clip0_265_511)">
<rect width="35" height="35" rx="5" fill="#32AE4D"/>
<rect x="-2.1875" y="-5.46875" width="45.9375" height="45.9375" fill="#32AE4D"/>
<path d="M20.5533 6.5625H11.9857C11.4176 6.5625 10.8728 6.78817 10.4711 7.18985C10.0694 7.59154 9.84375 8.13635 9.84375 8.70442V25.8398C9.84375 26.4078 10.0694 26.9526 10.4711 27.3543C10.8728 27.756 11.4176 27.9817 11.9857 27.9817H24.8372C25.4052 27.9817 25.95 27.756 26.3517 27.3543C26.7534 26.9526 26.9791 26.4078 26.9791 25.8398V12.9883L20.5533 6.5625Z" stroke="white" stroke-width="1.46874" stroke-linecap="round" stroke-linejoin="round"/>
<path d="M20.5532 6.5625V12.9883H26.979" stroke="white" stroke-width="1.46874" stroke-linecap="round" stroke-linejoin="round"/>
<path d="M18.4114 23.6978V17.2721" stroke="white" stroke-width="1.46874" stroke-linecap="round" stroke-linejoin="round"/>
<path d="M15.1985 20.485H21.6242" stroke="white" stroke-width="1.46874" stroke-linecap="round" stroke-linejoin="round"/>
</g>
</g>
<defs>
<filter id="filter0_d_265_511" x="0" y="0" width="37" height="37" filterUnits="userSpaceOnUse" color-interpolation-filters="sRGB">
<feFlood flood-opacity="0" result="BackgroundImageFix"/>
<feColorMatrix in="SourceAlpha" type="matrix" values="0 0 0 0 0 0 0 0 0 0 0 0 0 0 0 0 0 0 127 0" result="hardAlpha"/>
<feOffset dx="1" dy="1"/>
<feGaussianBlur stdDeviation="0.5"/>
<feComposite in2="hardAlpha" operator="out"/>
<feColorMatrix type="matrix" values="0 0 0 0 0 0 0 0 0 0 0 0 0 0 0 0 0 0 0.07 0"/>
<feBlend mode="normal" in2="BackgroundImageFix" result="effect1_dropShadow_265_511"/>
<feBlend mode="normal" in="SourceGraphic" in2="effect1_dropShadow_265_511" result="shape"/>
</filter>
<clipPath id="clip0_265_511">
<rect width="35" height="35" rx="5" fill="white"/>
</clipPath>
</defs>
</svg>
